Coordinates
version=1
nRows=13
nColumns=36
inDegrees=yes

Units are S.I. units (second, meters, Newtons, ...)
If the header above contains a line with 'inDegrees', this indicates whether rotational values are in degrees (yes) or radians (no).

endheader
time	pelvis_tilt	pelvis_list	pelvis_rotation	pelvis_tx	pelvis_ty	pelvis_tz	hip_flexion_r	hip_adduction_r	hip_rotation_r	knee_angle_r	knee_angle_r_beta	ankle_angle_r	subtalar_angle_r	mtp_angle_r	hip_flexion_l	hip_adduction_l	hip_rotation_l	knee_angle_l	knee_angle_l_beta	ankle_angle_l	subtalar_angle_l	mtp_angle_l	lumbar_extension	lumbar_bending	lumbar_rotation	arm_flex_r	arm_add_r	arm_rot_r	elbow_flex_r	pro_sup_r	arm_flex_l	arm_add_l	arm_rot_l	elbow_flex_l	pro_sup_l
      6.60000000	    -33.77185972	     -0.01855886	      1.84323571	     -0.31685031	      0.60840434	     -0.53442703	     99.54193235	      0.46229086	     -1.72423669	     95.71396002	      1.67052374	     27.16037138	    -14.50380309	     -7.49999987	     98.72985637	    -11.80302150	      6.10431941	     91.60227916	      1.59876137	     28.57967578	     -2.25814258	     -7.49999987	    -29.82751576	      2.74855842	     -0.52106810	    106.62483039	    -15.68964261	     19.97617977	     84.17263668	    105.44969728	    104.54690372	    -13.31736463	     24.38614983	     81.69039572	     94.75149911
      6.61000000	    -33.70880173	      0.30444157	      1.79645685	     -0.31687180	      0.60596164	     -0.53381224	     99.88178273	      0.48402027	     -1.48936776	     96.25297695	      1.67993136	     27.42301834	    -14.22986695	     -7.49999987	     98.85811535	    -12.20114581	      5.69683243	     92.05306258	      1.60662903	     29.36681627	     -0.67898449	     -7.49999987	    -30.31912622	      2.13532724	     -0.56360829	    106.95507095	    -15.97190984	     19.66776906	     84.62159296	    105.46455340	    105.60514912	    -13.24044331	     25.38401863	     81.23309514	     94.63078371
      6.62000000	    -33.77263928	      0.34677444	      1.82960968	     -0.31685698	      0.60342074	     -0.53377125	    100.27909803	      0.32184636	     -1.60849693	     96.72136697	      1.68810631	     27.51681964	    -14.27586262	     -7.49999987	     99.27514294	    -12.46118640	      5.48610352	     92.50040525	      1.61443663	     29.38299472	     -0.61228715	     -7.49999987	    -30.56771921	      2.05478184	     -0.56937400	    107.33988444	    -15.88696415	     19.54055720	     84.71747074	    105.46473876	    105.97630877	    -13.13210023	     25.28991669	     81.31490024	     94.62524820
      6.63000000	    -33.81531330	      0.48084871	      1.92663979	     -0.31686792	      0.60095661	     -0.53403846	    100.67806796	      0.06292193	     -1.57395061	     97.23226003	      1.69702308	     27.64881584	    -14.24030777	     -7.49999987	     99.64716113	    -12.64468462	      5.19496561	     92.96807959	      1.62259909	     29.37189445	     -0.30156392	     -7.49999987	    -30.83161075	      1.92531542	     -0.64288736	    107.73982466	    -15.86606832	     19.38624048	     84.86021692	    105.46784691	    106.38650935	    -13.03230247	     25.24098745	     81.36652752	     94.61201170
      6.64000000	    -33.83888985	      0.52655823	      1.95620942	     -0.31680925	      0.59880606	     -0.53413823	    101.00215774	     -0.19798030	     -1.73733706	     97.64569149	      1.70423882	     27.72413296	    -14.21352414	     -7.49999987	     99.97713915	    -12.94505744	      4.90354345	     93.34587967	      1.62919294	     29.40466128	     -0.16204014	     -7.49999987	    -31.06092133	      1.87125466	     -0.66457936	    108.02205064	    -15.78011209	     19.32100970	     84.96425635	    105.47105875	    106.66932443	    -12.97648138	     25.20819467	     81.38432343	     94.60707342
      6.65000000	    -33.86514818	      0.57881789	      1.93090060	     -0.31676026	      0.59664599	     -0.53398226	    101.33370331	     -0.34200007	     -1.83948857	     98.07307270	      1.71169803	     27.79597690	    -14.15441620	     -7.49999987	    100.29471115	    -13.23950828	      4.73373626	     93.73907825	      1.63605555	     29.44974115	      0.00689554	     -7.49999987	    -31.28334646	      1.79204782	     -0.63386766	    108.34992714	    -15.71628521	     19.24655744	     85.09090812	    105.48108958	    106.97049675	    -12.95912529	     25.15992242	     81.40218887	     94.60360551
      6.66000000	    -33.89343985	      0.62568182	      1.88321571	     -0.31668928	      0.59461425	     -0.53380948	    101.63813951	     -0.45439111	     -1.94453244	     98.45476263	      1.71835977	     27.87173177	    -14.04958559	     -7.49999987	    100.60313140	    -13.55192376	      4.57966885	     94.13033071	      1.64288420	     29.51603377	      0.23405254	     -7.49999987	    -31.48491397	      1.71247768	     -0.54949498	    108.66822131	    -15.69865987	     19.18055742	     85.23622369	    105.50426470	    107.25180041	    -12.93727122	     25.12962463	     81.42234810	     94.60103298
      6.67000000	    -33.84890129	      0.62546030	      1.77524524	     -0.31646308	      0.59291163	     -0.53354675	    101.77974389	     -0.51254510	     -2.05218740	     98.79518928	      1.72430134	     28.73041862	    -12.76177753	     -7.49999987	    100.80885159	    -14.00125749	      4.51538520	     94.54875384	      1.65018706	     30.39964486	      2.03309369	     -7.49999987	    -31.72186245	      1.59339658	     -0.33732590	    108.90157949	    -15.85563291	     19.17127332	     85.40608427	    106.40610574	    107.52575883	    -12.79501462	     25.31523665	     81.37997310	     93.54763188
      6.68000000	    -33.82005614	      0.62080599	      1.74398346	     -0.31629919	      0.59136466	     -0.53356287	    101.95707094	     -0.69464914	     -2.22466262	     99.11170372	      1.72982556	     28.95843423	    -12.50723591	     -7.49999987	    101.03031579	    -14.29938141	      4.40006984	     94.89921887	      1.65630383	     30.69764396	      2.65841622	     -7.49999987	    -31.85743007	      1.56611525	     -0.43257279	    108.99032840	    -15.61923038	     19.36638914	     85.49581509	    102.84311256	    107.66808885	    -12.91266969	     25.45896232	     81.66121546	     91.04797908
      6.69000000	    -33.84170744	      0.71474900	      1.80440154	     -0.31621413	      0.58991197	     -0.53388109	    102.19956388	     -0.93606246	     -2.22238179	     99.43553764	      1.73547753	     28.93365452	    -12.66024169	     -7.49999987	    101.24110912	    -14.38941735	      4.09509214	     95.14361923	      1.66056942	     30.06436700	      1.50006860	     -7.49999987	    -31.89116783	      1.48574526	     -0.60328983	    108.99254608	    -15.41104535	     19.46736864	     85.66540721	     98.46000053	    107.74620728	    -12.83110226	     25.49195444	     81.79202274	     87.98539541
      6.70000000	    -33.75719405	      0.52266668	      1.78133128	     -0.31591553	      0.58880115	     -0.53391581	    102.19912806	     -1.10744040	     -2.54846440	     99.64195997	      1.73908027	     29.29691027	    -12.04825897	     -7.49999987	    101.41056186	    -14.61001982	      4.30201101	     95.45478796	      1.66600034	     30.84430464	      3.10905456	     -7.49999987	    -32.09820590	      1.67094593	     -0.49504427	    109.20161222	    -15.40227585	     19.60827824	     85.67070133	     99.56355924	    107.86762367	    -12.88649807	     25.58034525	     81.82632948	     88.46366711
      6.71000000	    -33.73454860	      0.51984892	      1.76852995	     -0.31565989	      0.58768558	     -0.53390428	    102.31981246	     -1.23566905	     -2.63714790	     99.89226788	      1.74344897	     29.46172598	    -11.71965670	     -7.49999987	    101.56295911	    -14.76631258	      4.24251936	     95.70138206	      1.67030422	     30.73512459	      3.03448765	     -7.49999987	    -32.16155045	      1.65214564	     -0.47197470	    109.21287689	    -15.29253952	     19.10666877	     85.28265396	    105.64445437	    107.86160255	    -12.79701061	     25.27606272	     81.27767421	     92.33999047
      6.72000000	    -33.71049975	      0.42288690	      1.71806137	     -0.31536865	      0.58677413	     -0.53370409	    102.38131280	     -1.28487907	     -2.83840414	    100.06280481	      1.74642540	     29.55596179	    -11.67330028	     -7.49999987	    101.72498400	    -14.96879133	      4.30681209	     95.90957098	      1.67393780	     30.77027923	      3.08316613	     -7.49999987	    -32.21359117	      1.69667654	     -0.42827215	    109.19366048	    -15.20154353	     19.15151856	     85.43701277	    104.12957851	    107.85884129	    -12.83533339	     25.32580789	     81.42605495	     90.92064820
